<svg version="1.2" xmlns="http://www.w3.org/2000/svg" viewBox="0 0 595 842" width="595" height="842">
	<title>Cover Page</title>
	<style>
		.s0 { fill: none;stroke: #85eca9;stroke-miterlimit:10;stroke-width: 7 } 
		.s1 { fill: none;stroke: #4f4e4f;stroke-miterlimit:10;stroke-width: 7 } 
		.s2 { fill: #eef5f0 } 
		.s3 { fill: #85eca9 } 
		.s4 { fill: none;stroke: #2f2e2f;stroke-linecap: round;stroke-miterlimit:10;stroke-width: 7 } 
		.s5 { fill: #4f4e4f } 
	</style>
	<g id="Top Wave copy">
		<path id="Shape 1" fill-rule="evenodd" class="s0" d="m260.3 0c0 0 8.7 115.4-90.3 126-48.1 5.1-62 5.7-81 22-19 16.3-20.4 46.9-40.8 66.6-22.7 22.1-54.2 30.4-54.2 30.4"/>
		<path id="Shape 2" fill-rule="evenodd" class="s1" d="m-3 202c0 0 90.4 6.8 123.6-16.1 48.1-33.2 24-103.2 71.7-138 44.3-32.2 131.8-55.9 131.8-55.9"/>
	</g>
	<g id="Layer 1">
		<path id="BG" fill-rule="evenodd" class="s2" d="m602 0v842h-606v-842z"/>
		<g id="Top Wave">
			<path id="Shape 1" fill-rule="evenodd" class="s0" d="m260.3 0c0 0 8.7 115.4-90.3 126-48.1 5.1-62 5.7-81 22-19 16.3-20.4 46.9-40.8 66.6-22.7 22.1-54.2 30.4-54.2 30.4"/>
			<path id="Shape 2" fill-rule="evenodd" class="s1" d="m-3 202c0 0 90.4 6.8 123.6-16.1 48.1-33.2 24-103.2 71.7-138 44.3-32.2 131.8-55.9 131.8-55.9"/>
		</g>
		<g id="Bottom waves">
			<path id="Shape 1" fill-rule="evenodd" class="s0" d="m344.3 868.7c0 0-6-114.7 92.5-122.9 47.8-4 61.6-4.2 80.8-20 19.2-15.7 21.4-46 42-65.1 23.1-21.4 54.4-28.9 54.4-28.9"/>
			<path id="Shape 2" fill-rule="evenodd" class="s1" d="m610.1 674.4c0 0-89.6-8.9-123 13.1-48.4 31.9-26.1 101.9-74.3 135.2-44.6 31-132 52.5-132 52.5"/>
		</g>
	</g>
	<g id="LOGO">
		<path id="A.C.E
" class="s3" aria-label="A.C.E"  d="m178.6 325.9l16.1-2.7 18.6 102 16 4.5-2.1 7.3h-51.6l2.1-6.4 17.7-3.3-4.6-29-26.1-1.2q-1 3.9-2.9 9.1-1.9 5.1-5 11.1-3 5.9-6.5 10.8-3.5 4.9-8 8.2-4.4 3.2-8.6 3.2-5.3 0-9.6-3.4-4.3-3.4-5.9-8.1 8.5-3.4 15.9-9.3 7.5-5.9 13.3-13.8 5.9-8.1 10.6-17 4.8-8.9 8.7-19.7 3.8-10.8 6.6-20.7 2.8-10.1 5.3-21.6zm-11.1 63.1l22.2 2.8-7.9-49.9h-0.3q-3.7 18-14 47.1zm80.9 29.6q1.7 0.8 2.9 2.5 1.2 1.7 1.6 3.1 0.4 1.3 0.4 2.1 0 0.9-0.8 4.2-0.8 3.5-3.8 6.6-3.1 3-7.2 3-3.5-0.2-5.6-2.4-2-2-2.4-4.5-0.4-2.1-0.4-2.6 0-0.5 0.6-3.3 0.8-3.2 3.6-6.1 3.2-3.1 6.3-3.2 3.5-0.2 4.8 0.6zm72.3-62.5v-2.1q0-4.5-0.8-7.8-0.8-3.5-3.5-6-4.3-5.1-12.1-4.8-13.8 0.8-21 14.7-6.9 12.5-7 35.8 0 13.1 3.3 20.8 3.4 8.1 8.4 12.8 7.1 6.6 16.6 6.3 11.8 0 21.6-10.4 2.7-2.7 4.9-6.2l3.8 5.6q-2.1 5.2-5.6 9.5-8.1 9.7-20.3 13.6-5.3 1.6-11.2 1.8-5.1 0.1-11.6-1.6-12.4-3.9-20.6-14.6-8-10.6-8.8-27.2v-2.8q0-29.8 18.8-51.8 15.1-17.3 34.7-17.1 13.6 0 22.1 7.7 3.4 2.8 5.8 7.3 2.3 4.1 2.3 9.5v1q-0.5 5.4-3.5 9.5-3.1 4.2-6.9 5.2-3.8 1.1-5.8 1.1l-4.7-0.7q0.8-3.2 1.1-9.1zm38.9 62.5q1.7 0.8 2.9 2.5 1.2 1.7 1.6 3.1 0.4 1.3 0.4 2.1 0 0.9-0.8 4.2-0.8 3.5-3.8 6.6-3.1 3-7.2 3-3.5-0.2-5.6-2.4-2-2-2.4-4.5-0.4-2.1-0.4-2.6 0-0.5 0.6-3.3 0.7-3.2 3.6-6.1 3.1-3.1 6.3-3.2 3.5-0.2 4.8 0.6zm102.3 18.4q-49.5-0.3-55.4-0.3l-38.6 0.6 2-7.5 19.5-4.8 11.2-85.9-20.3-2.1 1.8-6.7q8.7-1.8 29.8-3.7 19-1.7 35.8-1.7l26.6 0.6-7.2 36.7-7.7-1.1-2.8-23.6-2.5-0.5q-13-2.6-33.1-2.3h-2.9l-4.9 41.4 40.7-3-3.1 13-38.7-0.8-5.6 42.9 19.5-0.9q17.2-1 22.4-2.1 2.9-4.6 7.2-14.3 3.7-8.6 5.4-14.3l7.7 1v0.5q0 11.9-1.8 22.6-2 11-5 16.3z"/>
		<path id="Shape 2" fill-rule="evenodd" class="s4" d="m306.2 322.9c0.1 0.1 33.6-1.6 35.5 24.2 1.9 25.7-27 32.9-36.5 36.8-9.5 4-26.3 1-26.3 1"/>
		<path id="Shape 5" fill-rule="evenodd" class="s4" d=""/>
		<path id="Shape 3" fill-rule="evenodd" class="s4" d="m285.6 381.5c-1.1 1.5-1.3 2-1.6 3-1 2.6 0.1 5.5 0.1 8.2"/>
		<path id="Shape 4" fill-rule="evenodd" class="s4" d="m280.6 381c-1.3 1.5-1 0.9-1.5 2.8-0.7 2.7 0.5 4.8 0.5 6.9"/>
		<path id="Shape 1" fill-rule="evenodd" class="s4" d="m307.7 322.9c0 0-26.6-1.5-44.2 31.7-2 3.7-6-26.6 12.1-34.6 23.8-10.6 32.1 2.9 32.1 2.9z"/>
	</g>
	<path id="Automotive Clarity Enhancer" class="s5" aria-label="Automotive Clarity Enhancer"  d="m153.1 455.8l2.6-0.4 3.1 16.7 2.6 0.7-0.4 1.2h-8.4l0.3-1.1 2.9-0.5-0.7-4.7-4.3-0.2q-0.2 0.6-0.5 1.5-0.3 0.8-0.8 1.8-0.5 0.9-1.1 1.7-0.5 0.8-1.3 1.4-0.7 0.5-1.4 0.5-0.8 0-1.5-0.5-0.7-0.6-1-1.4 1.4-0.5 2.6-1.5 1.2-1 2.2-2.3 0.9-1.3 1.7-2.7 0.8-1.5 1.4-3.3 0.7-1.7 1.1-3.3 0.5-1.7 0.9-3.6zm-1.8 10.3l3.6 0.5-1.3-8.2h-0.1q-0.6 3-2.2 7.7zm19.5 0.2q0-3.1 0.5-4.3 0.5-1.2 1.8-1.2 0.4 0 0.6 0.1l0.2 0.4-1 5.6-0.2 2.9q-0.2 1.3-0.1 1.6 0 0.5 0.1 0.6 0.1 0.2 0.5 0.2 0.3 0 1-0.7 0.7-0.7 1.1-1.5l0.6 0.5q-1.1 3.9-4.3 3.9-1.3 0-1.3-1.8 0-1 0.4-2.5h-0.2q-0.7 2-1.8 3.2-1.1 1.1-2.2 1.1-1.2 0-1.8-0.6-0.6-0.6-0.6-1.7 0-1.1 0.2-1.9l0.7-5q0.1-0.8 0.1-1.1 0-0.9-0.5-0.9-0.7 0-2.1 2.1l-0.7-0.4q0.7-1.7 1.9-2.9 1.2-1.2 2.4-1.2 1.5 0 1.4 1.9 0 0.8-0.3 3.1l-0.4 2.6q-0.2 1.2-0.2 2 0 0.9 0.1 1.2 0.2 0.2 0.7 0.2 1 0 1.9-1.3 0.8-1.3 1.5-4.2zm8.9 5.5q0.7 0 1.2-0.7 0.6-0.6 1.8-2.9l0.7 0.6q-0.7 2.6-1.9 4.1-1.3 1.4-3 1.4-0.9 0-1.3-0.4-0.4-0.5-0.4-1.4 0-1 0.4-3.7l0.8-6-1.6 0.1 0.4-1.6 1.4 0.2 0.3-3.1 2.2-0.2 0.2 0.2-0.5 3.1 3.4-0.3-0.4 1.8-3.2-0.2-0.6 5.5q-0.3 2.4-0.3 2.8 0 0.4 0.1 0.5 0.1 0.2 0.3 0.2zm7.8-8.5q-1.2 1.3-1.2 4 0 2.9 1.4 4.6 0.7 0.8 1.4 0.8 0.8 0 1.5-0.7 1.2-1.5 1.2-4.2 0-2.9-1.3-4.5-0.7-0.8-1.5-0.8-0.8 0-1.5 0.8zm-2.2 9.5q-1-1.5-1-3.8 0-2.2 0.7-4.1 0.8-1.8 2.1-2.9 1.4-1.1 3-1.1 1.6 0 2.7 1.5 1.1 1.4 1.1 3.6 0 2.2-0.7 4-0.6 1.8-2 3.1-1.3 1.3-3.1 1.3-1.8 0-2.8-1.6zm20.5-7.9l0.1 0.1q1.6-4 4.1-4 1 0 1.6 0.6 0.6 0.6 0.6 1.8 0 1.2-0.1 1.7l-0.7 5.2q0 0.4-0.1 1.1 0 0.9 0.5 0.9 0.6-0.1 1.2-0.6 0.8-0.5 1.2-1.2l0.6 0.4q-1.3 3.5-4.4 3.5-1.5 0-1.5-1.9 0-0.6 0.3-2.8l0.4-2.7q0.2-1.4 0.2-2.2 0-1.3-0.8-1.3-1.2 0-2 1.3-0.9 1.2-1.5 4.2-0.1 3-0.6 4.2-0.6 1.3-1.8 1.3-0.1 0-0.7-0.1l-0.2-0.4 1.2-5.5q0.3-2.4 0.3-3.4 0-1-0.2-1.3-0.2-0.2-0.6-0.2-1.1 0-2 1.2-0.8 1.2-1.5 4.2-0.1 3-0.6 4.2-0.6 1.1-1.9 1.1-0.1 0-0.6 0l-0.2-0.4 1.2-5.4 0.3-3.5q0.1-0.6 0.1-1 0-0.6-0.2-0.9-0.1-0.2-0.4-0.2-0.3 0-0.9 0.7-0.6 0.7-1.1 1.5l-0.7-0.5q0.6-1.6 1.8-2.8 1.3-1.2 2.6-1.2 1.2 0 1.1 1.5 0 0.7-0.2 1.6-0.1 0.6-0.2 1.3-0.1 0.2-0.1 0.4 0 0.2-0.1 0.3 0 0 0 0.1h0.2q0.6-2 1.9-3.4 1.3-1.4 2.5-1.4 1.2 0 1.6 0.4 0.5 0.5 0.5 1.7 0 1.2-0.2 1.8zm12.7-1.6q-1.1 1.3-1.1 4 0 2.9 1.3 4.6 0.7 0.8 1.5 0.8 0.8 0 1.4-0.7 1.2-1.5 1.2-4.2 0-2.9-1.3-4.5-0.6-0.8-1.4-0.8-0.9 0-1.6 0.8zm-2.2 9.5q-1-1.5-1-3.8 0-2.2 0.8-4.1 0.7-1.8 2.1-2.9 1.3-1.1 2.9-1.1 1.6 0 2.7 1.5 1.1 1.4 1.1 3.6 0 2.2-0.6 4-0.7 1.8-2 3.1-1.4 1.3-3.1 1.3-1.8 0-2.9-1.6zm12.4-1q0.7 0 1.3-0.7 0.5-0.6 1.8-2.9l0.7 0.6q-0.7 2.6-2 4.1-1.3 1.4-2.9 1.4-0.9 0-1.3-0.4-0.4-0.5-0.4-1.4 0-1 0.3-3.7l0.9-6-1.7 0.1 0.4-1.6 1.4 0.2 0.3-3.1 2.2-0.2 0.2 0.2-0.5 3.1 3.4-0.3-0.4 1.8-3.1-0.2-0.7 5.5q-0.2 2.4-0.2 2.8 0 0.4 0 0.5 0.1 0.2 0.3 0.2zm10-6.1l-0.4 4.6q-0.1 0.5-0.1 1 0 0.9 0.5 0.9 0.5 0 1.2-0.5 0.7-0.5 1.1-1.3l0.7 0.4q-1.4 3.5-4.3 3.5-0.9 0-1.3-0.5-0.3-0.6-0.3-1.4 0-0.9 0.2-2.7l0.5-4.7q0.3-2.1-0.5-2-0.6 0.2-2 2.2l-0.7-0.4q0.2-0.7 0.7-1.4 0.4-0.7 0.9-1.3 0.6-0.6 1.3-1 0.7-0.4 1.4-0.4 0.3 0 0.5 0.1 0.3 0.1 0.4 0.3 0.2 0.1 0.3 0.3 0.1 0.2 0.1 0.5 0 0.4 0 0.6 0 0.3 0 0.7 0 0.5 0 0.8-0.1 0.3-0.1 0.8-0.1 0.5-0.1 0.9zm0.5-10.4q0.4 0.4 0.4 1.1 0 0.7-0.5 1.2-0.5 0.6-1.1 0.6-0.6 0-1-0.4-0.4-0.4-0.4-1.1 0-0.6 0.5-1.2 0.5-0.7 1.1-0.7 0.6 0 1 0.5zm8.2 11.7l-0.2 1.1q-0.1 0.6-0.1 1.8 0 1.1 0.4 1.9 0.5 0.9 1.3 0.9 0.9 0 1.6-1.1 0.8-1 1.1-2.6 0.4-1.4 0.4-3 0-2.7-1.9-4.4 0.7-0.7 1.7-0.7 0.9 0 1.4 0.9 0.6 0.8 0.6 2.1 0 2.5-0.8 4.8-0.7 2.4-2.1 4-1.5 1.6-3.3 1.6-2.7 0-2.7-4 0-0.5 0.1-1.4l0.4-3.6q0.1-0.5 0.1-1.1 0-1-0.5-1-0.4 0-1.9 2-0.1 0.2-0.2 0.3l-0.7-0.5q0.7-1.6 2-2.8 1.2-1.2 2.4-1.2 0.7 0 0.9 0.5 0.4 0.5 0.4 1.6 0 0.6-0.4 3.9zm13.1-3.2q0-0.7-0.3-1-0.3-0.4-0.9-0.4-2.4 0-2.8 5.5 4-1.4 4-4.1zm1.6-2.2q0.6 0.7 0.6 1.8 0 2.1-2.1 3.6-1.8 1.3-4.1 2 0.1 3.5 2.4 3.5 1.7 0 3-2.1l0.5 0.5q-0.5 1.4-1.8 2.5-1.2 1.1-2.9 1.1-1.7 0-2.6-1.3-0.9-1.3-0.9-3.5 0-2.2 0.8-4.2 0.9-2 2.3-3.3 1.4-1.3 3-1.3 1.1 0 1.8 0.7zm17.6-0.8v-0.4q0-0.7-0.1-1.3-0.2-0.5-0.6-0.9-0.7-0.9-2-0.8-2.3 0.1-3.4 2.4-1.2 2-1.2 5.8 0 2.2 0.6 3.4 0.5 1.4 1.3 2.1 1.2 1.1 2.8 1.1 1.9 0 3.5-1.7 0.4-0.5 0.8-1l0.6 0.9q-0.3 0.8-0.9 1.5-1.3 1.6-3.3 2.2-0.9 0.3-1.9 0.3-0.8 0.1-1.9-0.2-2-0.7-3.3-2.4-1.3-1.7-1.5-4.5v-0.4q0-4.9 3.1-8.5 2.5-2.8 5.7-2.8 2.2 0 3.6 1.3 0.6 0.4 1 1.2 0.3 0.6 0.3 1.5v0.2q-0.1 0.9-0.5 1.5-0.5 0.7-1.2 0.9-0.6 0.2-0.9 0.2l-0.8-0.1q0.1-0.6 0.2-1.5zm4.2 8.9l1.1-8.7 0.4-3.7-2-0.4 0.2-1.1 4-0.3 0.3 0.3-1.1 9.1-0.6 5.4q0 0.5 0 0.9 0 1 0.5 1 0.4 0 1.2-0.5 0.6-0.5 1.1-1.3l0.6 0.4q-1.3 3.6-4.4 3.6-1.5 0-1.5-2.2 0-0.8 0.2-2.5zm8.5 0.1q0 1.3 0.1 1.8 0.3 0.5 0.8 0.5 1.1 0 2.5-2.3 1.3-2.2 1.9-5.5-0.2-0.6-0.9-1.1-0.6-0.5-1.3-0.5-0.7 0-1.4 0.7-0.6 0.7-1 1.9-0.7 2.3-0.7 4.5zm6-9.1l0.2-0.1 1.7 0.5-1 5.7-0.5 3.5q-0.1 0.8-0.1 1.2 0 0.8 0.7 0.8 0.4 0 1-0.7 0.7-0.8 1.2-1.6l0.6 0.5q-0.8 2-1.8 3-0.9 1-2.5 1-0.7 0-1.1-0.6-0.4-0.5-0.4-1.6 0-1 0.6-2.5h-0.2q-0.8 1.8-2.1 3.2-1.2 1.3-2.4 1.3-1.2 0-1.7-0.9-0.5-0.9-0.5-2.7 0-1.8 0.8-4.1 0.9-2.3 2.3-4 1.4-1.7 2.8-1.7 1.4 0 2.1 1.1h0.1zm9.3 8q-0.1 0.6-0.2 1.9-0.1 1.4-0.2 1.9-0.3 1.2-0.9 1.6-0.4 0.3-0.7 0.4-0.3 0-0.5 0-0.3 0-0.6-0.1l-0.2-0.4 1.2-5.7 0.3-3q0-0.6 0-1.2 0-0.5 0-0.6-0.1-0.2-0.2-0.2-0.1-0.2-0.2-0.2-0.2 0-0.5 0.2-0.3 0.2-1 1-0.5 0.9-0.6 1.1l-0.7-0.6q0.7-2 2.5-3.3 0.5-0.4 0.9-0.5l0.7-0.2q1 0 1.3 1 0.1 0.3 0.1 0.7v0.3q0 0.6-0.1 1.1l-0.4 2.1h0.1q0.3-0.7 0.6-1.4 0.3-0.7 0.7-1.5 0.5-0.8 1.2-1.3 0.6-0.5 1.3-0.5 0.8 0 1.2 0.6 0.5 0.5 0.5 1.4 0 1-0.7 1.8-0.3 0.3-0.8 0.5-0.1 0-0.2-0.3-0.2-0.3-0.3-0.5-0.1-0.1-0.2-0.3-0.2-0.3-0.4-0.3-0.2-0.1-0.4-0.1-0.6 0-1.5 1.7-0.8 1.7-1.1 2.9zm11.3-3l-0.4 4.6q0 0.5 0 1.1 0 0.8 0.5 0.8 0.5 0 1.2-0.5 0.7-0.5 1.1-1.3l0.6 0.4q-1.3 3.5-4.2 3.5-0.9 0-1.3-0.5-0.4-0.6-0.4-1.4 0-0.9 0.2-2.7l0.6-4.6q0.2-2.2-0.5-2.1-0.7 0.2-2 2.2l-0.8-0.4q0.3-0.7 0.7-1.4 0.4-0.6 1-1.3 0.5-0.6 1.2-1 0.7-0.4 1.5-0.4 0.3 0 0.5 0.1 0.2 0.1 0.4 0.3 0.1 0.1 0.2 0.3 0.1 0.2 0.1 0.5 0.1 0.4 0.1 0.6 0 0.3 0 0.8-0.1 0.4-0.1 0.7 0 0.3-0.1 0.8 0 0.5-0.1 0.9zm0.6-10.4q0.3 0.4 0.3 1.1 0 0.7-0.4 1.2-0.5 0.6-1.2 0.6-0.6 0-0.9-0.4-0.4-0.4-0.4-1.1 0-0.6 0.5-1.2 0.5-0.7 1.1-0.7 0.6 0 1 0.5zm6.2 16.5q0.7 0 1.2-0.7 0.6-0.6 1.8-2.9l0.7 0.6q-0.7 2.6-1.9 4.1-1.3 1.4-3 1.4-0.9 0-1.3-0.4-0.4-0.5-0.4-1.4 0-1 0.4-3.7l0.8-6-1.6 0.1 0.3-1.6 1.5 0.2 0.3-3.1 2.2-0.2 0.2 0.2-0.5 3.1 3.4-0.3-0.4 1.8-3.2-0.2-0.6 5.5q-0.3 2.4-0.3 2.8 0 0.4 0.1 0.5 0.1 0.2 0.3 0.2zm5.3-6.5l-0.8-0.5q0.6-1.6 1.7-2.8 1.1-1.2 2.2-1.2 1.1 0 1.6 0.7 0.6 0.7 0.8 2.4l0.9 7.1v0.6h0.2q1.7-2.5 2-3.4 0.3-0.8 0.4-1.4 0-0.4 0-1.4 0-0.8-0.6-2-0.6-1.1-1.4-1.8 0.3-0.4 0.8-0.6 0.5-0.3 1.1-0.3 1 0 1.7 0.9 0.7 0.9 0.7 2 0 2-1.1 4.1-1.1 2.2-3.8 5.6-0.2 1.8-0.9 3.2-0.7 1.4-1.8 2.2-1.1 0.9-2.2 0.9-1 0-1.6-0.5-0.6-0.4-0.6-1.1v-0.1q0-0.7 0.2-1 0.2-0.4 0.7-0.8 1.1 1 2.2 1 1.1 0 1.6-0.6 0.5-0.6 0.5-2.1 0-0.9-0.1-2l-1-7.3q-0.1-1-0.5-1.5-0.4-0.6-0.8-0.6-0.4 0-1 0.7-0.6 0.7-1.1 1.6zm33.2 8.7q-8.1 0-9.1 0h-6.3l0.3-1.2 3.2-0.8 1.9-14-3.4-0.4 0.3-1.1q1.4-0.3 4.9-0.6 3.1-0.2 5.9-0.2l4.3 0.1-1.2 6-1.2-0.2-0.5-3.9-0.4-0.1q-2.1-0.4-5.4-0.3h-0.5l-0.8 6.7 6.7-0.5-0.5 2.2-6.4-0.2-0.9 7.1 3.2-0.2q2.8-0.1 3.7-0.3 0.4-0.8 1.1-2.4 0.7-1.4 0.9-2.3l1.3 0.2q0 2-0.3 3.7-0.3 1.8-0.8 2.7zm7.5-5q-0.1 3-0.7 4.2-0.5 1.2-1.8 1.2-0.1 0-0.6 0l-0.2-0.4 1.2-5.7 0.3-3.4q0-0.6 0-1.1 0-0.5-0.1-0.8-0.1-0.3-0.4-0.2-0.3 0-0.9 0.7-0.7 0.7-1.1 1.5l-0.7-0.5q0.6-1.6 1.8-2.8 1.3-1.2 2.6-1.2 1.1 0 1.1 1.5 0 0.7-0.2 1.6-0.1 0.6-0.3 1.2-0.1 0.8-0.1 0.8l0.2 0.1q0.6-2 1.9-3.4 1.3-1.4 2.5-1.4 1.2 0 1.7 0.6 0.6 0.6 0.6 1.5 0 1-0.1 2l-0.7 5.3q0 0.5 0 1.1 0 0.8 0.4 0.8 0.5 0 1.3-0.5 0.7-0.5 1.1-1.3l0.6 0.4q-1.3 3.6-4.4 3.6-1.5 0-1.5-1.9 0-0.2 0.3-2.8l0.4-2.8q0.2-1.6 0.2-2.4 0-0.5-0.2-0.8-0.2-0.3-0.6-0.3-2.3 0-3.6 5.6zm11.1-1.4l1.3-10.3-2-0.4 0.1-1.1 4.2-0.3 0.3 0.3-0.9 6.1-1 3.8 0.2 0.1q0.7-2.1 2-3.4 1.2-1.4 2.4-1.4 1.2 0 1.8 0.6 0.5 0.6 0.5 1.5 0 1.1-0.1 2l-0.6 5.2q-0.1 0.5-0.1 1 0 0.9 0.5 0.9 0.5 0 1.2-0.5 0.7-0.5 1.1-1.3l0.6 0.4q-0.7 1.8-1.7 2.7-1.1 0.8-2.7 0.8-1.4 0-1.4-1.8 0-0.9 0.3-2.9l0.3-2.6q0.2-1.5 0.2-2.3 0-0.6-0.2-0.9-0.1-0.3-0.6-0.3-1.1 0-2 1.3-0.9 1.2-1.6 4.1 0 3.1-0.6 4.2-0.6 1.2-1.8 1.2-0.1 0-0.7 0l-0.2-0.4zm14.3 2.1q0 1.3 0.2 1.8 0.2 0.5 0.7 0.5 1.1 0 2.5-2.2 1.3-2.3 1.9-5.5-0.2-0.6-0.8-1.1-0.7-0.5-1.4-0.5-0.7 0-1.3 0.7-0.7 0.7-1.1 1.8-0.7 2.3-0.7 4.5zm6-9.1l0.2-0.1 1.7 0.5-1 5.8-0.5 3.4q-0.1 0.8-0.1 1.3 0 0.7 0.7 0.7 0.4 0 1-0.7 0.7-0.7 1.2-1.6l0.6 0.5q-0.8 2.1-1.7 3-1 1-2.5 1-0.8 0-1.2-0.5-0.4-0.6-0.4-1.6 0-1.1 0.6-2.6h-0.2q-0.8 1.9-2 3.2-1.3 1.4-2.5 1.4-1.2 0-1.7-1-0.5-0.9-0.5-2.7 0-1.8 0.9-4.1 0.8-2.3 2.2-4 1.4-1.7 2.8-1.7 1.4 0 2.1 1.1h0.1zm9.3 8.3q-0.1 3.1-0.6 4.2-0.6 1.3-1.9 1.3-0.1 0-0.6-0.1l-0.2-0.4 1.2-5.6 0.3-3.4q0-0.6 0-1.1 0-0.6-0.1-0.9-0.1-0.2-0.4-0.2-0.3 0-0.9 0.7-0.6 0.8-1.1 1.6l-0.7-0.6q0.6-1.5 1.8-2.8 1.3-1.2 2.6-1.2 1.1 0 1.1 1.6 0 0.7-0.2 1.5-0.1 0.6-0.2 1.3-0.2 0.7-0.2 0.8h0.2q0.6-2 1.9-3.4 1.3-1.4 2.5-1.4 1.2 0 1.7 0.6 0.6 0.6 0.6 1.6 0 0.9-0.1 1.9l-0.7 5.3q0 0.6 0 1.1 0 0.9 0.5 0.9 0.4 0 1.2-0.5 0.7-0.5 1.1-1.4l0.6 0.5q-1.3 3.5-4.4 3.5-1.4 0-1.4-1.8 0-0.3 0.3-2.9l0.3-2.8q0.2-1.5 0.2-2.4 0-0.5-0.2-0.8-0.2-0.2-0.6-0.2-2.3 0-3.6 5.5zm16.5-3.6q0-0.3-0.2-1.1-0.2-1.5-0.8-1.8-0.3-0.1-0.5-0.1-1.3 0-2 1.6-0.7 1.6-0.7 4.3 0 1.4 0.2 2.3 0.2 0.8 0.8 1.4 0.7 0.6 1.7 0.6 0.7 0 1.4-0.5 0.7-0.5 1.2-1.4l0.5 0.5q-0.3 1.3-1.6 2.3-1.4 1-2.8 1-1.9 0-2.8-1.4-1-1.5-1-3.9 0-1.6 0.5-3.2 0.6-1.5 1.4-2.6 0.9-1.1 1.9-1.8 1.1-0.6 2.3-0.6 1.1 0 1.8 0.6 0.7 0.7 0.7 1.7 0 1-0.5 1.5-0.4 0.4-1.5 0.6zm8.8-1.6q0-0.7-0.3-1-0.3-0.3-0.8-0.3-2.5 0-2.9 5.5 4-1.5 4-4.2zm1.6-2.2q0.7 0.7 0.7 1.8 0 2.1-2.2 3.7-1.8 1.2-4.1 2 0.1 3.4 2.4 3.4 1.7 0 3-2.1l0.6 0.5q-0.5 1.5-1.8 2.5-1.3 1.1-3 1.1-1.6 0-2.6-1.3-0.9-1.2-0.9-3.4 0-2.2 0.9-4.2 0.8-2.1 2.2-3.4 1.5-1.3 3-1.3 1.2 0 1.8 0.7zm6.2 7.2q-0.2 0.6-0.3 1.9-0.1 1.4-0.1 1.8-0.4 1.3-0.9 1.7-0.5 0.3-0.7 0.3-0.3 0-0.6 0-0.3 0-0.6-0.1l-0.2-0.4 1.2-5.6 0.3-3.1q0.1-0.6 0.1-1.1 0-0.5-0.1-0.7 0-0.1-0.1-0.2-0.1-0.1-0.3-0.2-0.2 0-0.4 0.2-0.4 0.2-1 1.1-0.6 0.8-0.7 1l-0.7-0.5q0.8-2 2.5-3.4 0.6-0.4 0.9-0.5l0.7-0.1q1.1 0 1.4 0.9 0.1 0.3 0.1 0.7v0.3q0 0.6-0.2 1.1l-0.4 2.1 0.2 0.1q0.2-0.7 0.5-1.5 0.3-0.7 0.8-1.5 0.5-0.8 1.1-1.3 0.6-0.4 1.3-0.4 0.8 0 1.3 0.5 0.5 0.5 0.5 1.4 0 1-0.7 1.8-0.3 0.4-0.9 0.6 0-0.1-0.2-0.4-0.1-0.3-0.2-0.4-0.1-0.2-0.3-0.4-0.1-0.2-0.3-0.3-0.2-0.1-0.4-0.1-0.7 0-1.5 1.7-0.9 1.7-1.1 3z"/>
</svg>