<svg version="1.2" xmlns="http://www.w3.org/2000/svg" viewBox="0 0 1000 1000" width="1000" height="1000"><style>.a{fill:#85eca9}.b{fill:none;stroke:#2f2e2f;stroke-linecap:round;stroke-miterlimit:10;stroke-width:7}</style><path class="a" d="m202.3 274.8l40.7-6.8 46.9 257.2 40.2 11.5-5.2 18.3h-130l5.2-16.3 44.7-8.1-11.8-73.1-65.7-3.2q-2.4 9.9-7.4 23-4.8 12.9-12.4 28-7.7 14.9-16.5 27.3-8.8 12.2-20.1 20.6-11.1 8.1-21.9 8.1-13.3 0-24.2-8.6-10.8-8.5-14.9-20.5 21.5-8.4 40.2-23.3 19-14.9 33.7-35 14.6-20.3 26.6-42.6 12.2-22.6 21.9-49.7 9.7-27.3 16.7-52.4 7-25.3 13.3-54.4zm-28 159.2l56 7-19.8-125.8h-0.9q-9.3 45.4-35.3 118.8zm204.1 74.5q4.3 2 7.3 6.3 3.1 4.3 4 7.9 0.9 3.4 0.9 5.2 0 2.5-1.8 10.6-2 9-9.7 16.7-7.7 7.7-18.1 7.7-8.8-0.7-14.2-6.1-4.9-5-6.1-11.3-0.9-5.4-0.9-6.5 0-1.4 1.6-8.4 1.8-8.1 9-15.3 7.9-7.9 15.8-8.2 8.8-0.4 12.2 1.4zm182.2-157.6v-5.2q0-11.3-2-19.6-2-8.8-8.8-15.2-10.8-12.8-30.5-12.2-34.8 2.1-52.8 37.1-17.4 31.6-17.9 90.3 0 32.9 8.4 52.6 8.6 20.3 21.2 32.3 17.9 16.5 42 15.8 29.6 0 54.4-26.2 6.8-6.8 12.4-15.6l9.5 14q-5.2 13.1-14.2 23.9-20.3 24.4-51 34.4-13.6 4-28.5 4.5-12.6 0.2-29.1-4.1-31.4-9.7-51.9-36.8-20.3-26.6-22.4-68.6v-7q0-75.2 47.7-130.5 37.9-43.8 87.3-43.1 34.4 0 55.8 19.1 8.6 7.3 14.7 18.6 5.6 10.3 5.6 23.9v2.5q-1.1 13.7-8.8 24.1-7.7 10.4-17.4 13.1-9.4 2.7-14.6 2.7l-11.8-1.8q2.1-8.1 2.7-23zm98.2 157.6q4.3 2 7.3 6.3 3.1 4.3 4 7.9 0.9 3.4 0.9 5.2 0 2.5-1.8 10.6-2 9-9.7 16.7-7.7 7.7-18 7.7-8.8-0.7-14.3-6.1-4.9-5-6.1-11.3-0.9-5.4-0.9-6.5 0-1.4 1.6-8.4 1.8-8.1 9-15.3 7.9-7.9 15.8-8.2 8.9-0.4 12.2 1.4zm257.9 46.5q-124.7-0.7-139.6-0.7l-97.5 1.4 5.2-18.8 49.2-12.2 28.2-216.7-51.2-5.2 4.5-16.9q21.9-4.5 75.2-9.3 47.9-4.3 90.3-4.3l67.1 1.4-18.1 92.8-19.4-3-7.2-59.3-6.4-1.4q-32.7-6.5-83.3-5.9h-7.4l-12.4 104.6 102.7-7.7-7.7 32.7-97.8-2-14 108.4 49-2.3q43.6-2.5 56.7-5.4 7.2-11.5 18.1-36.1 9.5-21.7 13.5-35.9l19.7 2.5v1.3q0 29.8-4.8 56.9-5 27.8-12.6 41.1z"/><path fill-rule="evenodd" class="b" d="m526.4 267.1c0.4 0.3 84.9-4 89.6 60.9 4.7 64.9-68 83.1-92 93-24 9.9-66.3 2.4-66.3 2.4"/><path fill-rule="evenodd" class="b" d="m-238 25"/><path fill-rule="evenodd" class="b" d="m474.5 414.9c-2.8 3.8-3.1 5-4 7.5-2.4 6.5 0.3 13.9 0.2 20.6"/><path fill-rule="evenodd" class="b" d="m462 413.7c-3.3 3.8-2.6 2.1-3.8 6.9-1.8 6.8 1.2 12.1 1.2 17.5"/><path fill-rule="evenodd" class="b" d="m530.3 267c0 0-67.1-3.6-111.6 80-5 9.4-14.9-67 30.8-87.3 60-26.6 80.8 7.3 80.8 7.3z"/></svg>